#N canvas 216 67 907 772 10;
#N canvas 367 211 308 406 kick 1;
#X obj 46 21 inlet;
#X obj 170 17 inlet;
#X obj 79 290 outlet~;
#X obj 65 180 osc~;
#X obj 42 146 vline~;
#X obj 132 229 vline~;
#X obj 165 106 f;
#X obj 81 259 *~;
#X msg 42 125 150 0 0 \, 50 75 0;
#X msg 132 196 \$1 1 0 \, 0 75 1;
#X connect 0 0 8 0;
#X connect 0 0 6 0;
#X connect 1 0 6 1;
#X connect 3 0 7 0;
#X connect 4 0 3 0;
#X connect 5 0 7 1;
#X connect 6 0 9 0;
#X connect 7 0 2 0;
#X connect 8 0 4 0;
#X connect 9 0 5 0;
#X restore 40 390 pd kick;
#N canvas 677 223 354 371 hat 1;
#X obj 92 17 inlet;
#X obj 170 15 inlet;
#X obj 43 110 noise~;
#X obj 44 133 hip~ 20000;
#X obj 45 156 hip~ 10000;
#X obj 187 245 vline~;
#X obj 203 76 f;
#X obj 95 239 *~;
#X obj 96 279 outlet~;
#X obj 146 104 random 5;
#X obj 146 130 / 10;
#X obj 146 154 + 0.8;
#X obj 186 189 *;
#X obj 129 59 t b b;
#X msg 187 212 \$1 1 0 \, 0 30 1;
#X connect 0 0 13 0;
#X connect 1 0 6 1;
#X connect 2 0 3 0;
#X connect 3 0 4 0;
#X connect 4 0 7 0;
#X connect 5 0 7 1;
#X connect 6 0 12 1;
#X connect 7 0 8 0;
#X connect 9 0 10 0;
#X connect 10 0 11 0;
#X connect 11 0 12 0;
#X connect 12 0 14 0;
#X connect 13 0 9 0;
#X connect 13 1 6 0;
#X connect 14 0 5 0;
#X restore 250 400 pd hat;
#N canvas 1069 24 737 931 snare 0;
#X obj 135 41 inlet;
#X obj 191 36 inlet;
#X obj 39 96 lop~ 3000;
#X obj 39 121 hip~ 1000;
#X obj 181 137 vline~;
#X obj 181 165 *~;
#X obj 39 71 noise~;
#X obj 106 109 osc~ 180;
#X obj 83 155 +~;
#X obj 181 86 f;
#X msg 181 111 \$1 1 0 \, 0 125 1;
#X obj 84 213 *~;
#X obj 85 237 outlet~;
#X connect 0 0 9 0;
#X connect 1 0 9 1;
#X connect 2 0 3 0;
#X connect 3 0 8 0;
#X connect 4 0 5 0;
#X connect 4 0 5 1;
#X connect 5 0 11 1;
#X connect 6 0 2 0;
#X connect 7 0 8 1;
#X connect 8 0 11 0;
#X connect 9 0 10 0;
#X connect 10 0 4 0;
#X connect 11 0 12 0;
#X restore 140 400 pd snare;
#X obj 10 320 bng 35 250 50 0 empty empty empty 17 7 0 10 #fcfcfc #000000
#000000;
#X obj 70 290 vsl 12 62 0 1 0 0 empty empty empty 0 -9 0 10 #fcfcfc
#000000 #000000 0 1;
#X obj 210 470 dac~;
#X obj 120 330 bng 35 250 50 0 empty empty empty 17 7 0 10 #fcfcfc
#000000 #000000;
#X obj 180 270 vsl 19 62 0 1 0 0 empty empty empty 0 -9 0 10 #fcfcfc
#000000 #000000 0 1;
#X obj 230 320 bng 35 250 50 0 empty empty empty 17 7 0 10 #fcfcfc
#000000 #000000;
#X obj 280 290 vsl 19 62 0 1 0 0 empty empty empty 0 -9 0 10 #fcfcfc
#000000 #000000 0 1;
#N canvas 1036 222 515 376 counter 1;
#X obj 17 192 outlet;
#X obj 54 11 inlet;
#X obj 17 70 metro 0.25 120 permin;
#X msg 41 37 tempo \$1 permin;
#X obj 282 200 hsl 128 15 0 127 0 0 empty empty empty -2 -8 0 10 #fcfcfc
#000000 #000000 0 1;
#X obj 18 131 f;
#X obj 55 133 + 1;
#X msg 32 99 0;
#X obj 18 158 % 16;
#X obj 11 11 inlet;
#X connect 1 0 3 0;
#X connect 2 0 5 0;
#X connect 3 0 2 0;
#X connect 5 0 6 0;
#X connect 5 0 8 0;
#X connect 6 0 5 1;
#X connect 7 0 5 1;
#X connect 8 0 0 0;
#X connect 9 0 2 0;
#X connect 9 0 7 0;
#X restore 40 70 pd counter;
#X floatatom 40 100 5 0 0 0 - - -, f 5;
#X obj 150 60 hsl 128 15 20 240 0 0 empty empty empty -2 -8 0 10 #fcfcfc
#000000 #000000 0 1;
#N canvas 0 0 450 300 (subpatch) 0;
#X array array1 16 float 3 black black;
#A 0 0 2 2 7 3 7 2 2 0 2 2 7 3 7 2 7;
#X coords 0 6 16 0 200 140 1;
#X restore 420 20 graph;
#X obj 320 470 array set array1;
#X msg 360 290 0 2 3 4 5 6 0 1 2 3 4 5 6 0 1 2;
#X obj 40 130 hradio 15 0 0 16 empty empty empty 0 -8 0 10 #fcfcfc
#000000 #000000 0;
#X obj 30 30 tgl 15 0 empty empty empty 17 7 0 10 #fcfcfc #000000 #000000
0 1;
#X obj 10 170 tabread array1;
#X obj 20 220 select 0 1 2 3 4 5 6;
#X msg 360 220 0 2 2 7 3 7 2 2 0 2 2 7 3 7 2 7;
#X msg 360 350 4 0 0 0 6 0 0 0 4 0 0 0 6 0 0 0;
#X text 30 0 START / STOP;
#X text 150 30 TEMPO (BPM);
#X obj 160 530 throw~ drum_mix;
#X connect 0 0 24 0;
#X connect 1 0 24 0;
#X connect 2 0 24 0;
#X connect 3 0 0 0;
#X connect 4 0 0 1;
#X connect 6 0 2 0;
#X connect 7 0 2 1;
#X connect 8 0 1 0;
#X connect 9 0 1 1;
#X connect 10 0 11 0;
#X connect 11 0 16 0;
#X connect 12 0 10 1;
#X connect 15 0 14 0;
#X connect 16 0 18 0;
#X connect 17 0 10 0;
#X connect 18 0 19 0;
#X connect 19 0 3 0;
#X connect 19 1 6 0;
#X connect 19 2 8 0;
#X connect 19 3 3 0;
#X connect 19 3 6 0;
#X connect 19 4 3 0;
#X connect 19 4 8 0;
#X connect 19 5 6 0;
#X connect 19 5 8 0;
#X connect 19 6 3 0;
#X connect 19 6 6 0;
#X connect 19 6 8 0;
#X connect 20 0 14 0;
#X connect 21 0 14 0;
