#N canvas 104 48 958 997 10;
#X obj 1040 -80 key;
#X obj -100 480 mtof;
#X obj -30 580 osc~;
#X obj 254 885 *~ 0.1;
#X obj 1590 1240 dac~;
#X msg 926 25 60;
#X msg 981 25 62;
#X msg 1032 25 64;
#X obj 255 848 *~;
#X obj 271 760 vline~;
#X obj 120 810 lop~ 1200;
#X msg 952 47 61;
#X msg 1012 47 63;
#X msg 1062 47 65;
#X msg 1082 27 66;
#X msg 1112 47 67;
#X msg 1134 25 68;
#X msg 1160 47 69;
#X msg 1186 25 70;
#X msg 1212 47 71;
#X msg 1238 25 72;
#X msg 1264 47 73;
#X msg 1288 25 74;
#X msg 1314 47 75;
#X obj 1012 -43 select 97 119 115 101 100 102 116 103 121 104 117 106
107 111 108 112;
#X obj 390 1050 +~;
#X obj 1590 1150 +~;
#X obj 1320 270 pack 0 0;
#X msg 1012 47 63;
#X obj 1240 160 t f b;
#X msg 1330 190 100;
#X msg 270 720 1 5 \, 0.3 100 5 \, 0 1000 500;
#X obj -160 540 * 1;
#X obj -120 540 * 2;
#X obj -80 540 * 3;
#X obj -40 540 * 4;
#X obj 0 540 * 5;
#X obj -80 580 osc~;
#X obj -130 580 osc~;
#X obj -180 580 osc~;
#X obj 20 580 osc~;
#X obj -160 630 *~ 1;
#X obj -140 660 +~;
#X obj -110 690 +~;
#X obj -80 710 +~;
#X obj -50 730 +~;
#X obj 212 572 osc~;
#X obj 162 572 osc~;
#X obj 112 572 osc~;
#X obj 62 572 osc~;
#X obj 262 572 osc~;
#X obj 102 652 +~;
#X obj 132 682 +~;
#X obj 162 702 +~;
#X obj 192 722 +~;
#X obj 82 532 * 6;
#X obj 122 532 * 7;
#X obj 162 532 * 8;
#X obj 200 530 * 9;
#X obj 242 532 * 10;
#X obj -120 630 *~ 0.7;
#X obj -70 630 *~ 0.5;
#X obj -20 630 *~ 0.35;
#X obj 30 630 *~ 0.25;
#X obj 130 620 *~ 0.1;
#X obj 180 620 *~ 0.07;
#X obj 230 620 *~ 0.05;
#X obj 280 620 *~ 0.03;
#X obj 82 622 *~ 0.15;
#X obj 70 780 +~;
#X obj 612 522 mtof;
#X obj 682 622 osc~;
#X obj 966 927 *~ 0.1;
#X obj 967 890 *~;
#X obj 983 802 vline~;
#X obj 832 852 lop~ 1200;
#X obj 730 1030 +~;
#X msg 982 762 1 5 \, 0.3 100 5 \, 0 1000 500;
#X obj 552 582 * 1;
#X obj 592 582 * 2;
#X obj 632 582 * 3;
#X obj 672 582 * 4;
#X obj 712 582 * 5;
#X obj 632 622 osc~;
#X obj 582 622 osc~;
#X obj 532 622 osc~;
#X obj 732 622 osc~;
#X obj 552 672 *~ 1;
#X obj 572 702 +~;
#X obj 602 732 +~;
#X obj 632 752 +~;
#X obj 662 772 +~;
#X obj 924 614 osc~;
#X obj 874 614 osc~;
#X obj 824 614 osc~;
#X obj 774 614 osc~;
#X obj 974 614 osc~;
#X obj 814 694 +~;
#X obj 844 724 +~;
#X obj 874 744 +~;
#X obj 904 764 +~;
#X obj 794 574 * 6;
#X obj 834 574 * 7;
#X obj 874 574 * 8;
#X obj 912 572 * 9;
#X obj 954 574 * 10;
#X obj 592 672 *~ 0.7;
#X obj 642 672 *~ 0.5;
#X obj 692 672 *~ 0.35;
#X obj 742 672 *~ 0.25;
#X obj 842 662 *~ 0.1;
#X obj 892 662 *~ 0.07;
#X obj 942 662 *~ 0.05;
#X obj 992 662 *~ 0.03;
#X obj 794 664 *~ 0.15;
#X obj 782 822 +~;
#X obj 1193 537 mtof;
#X obj 1263 637 osc~;
#X obj 1547 942 *~ 0.1;
#X obj 1548 905 *~;
#X obj 1564 817 vline~;
#X obj 1413 867 lop~ 1200;
#X obj 1710 1080 +~;
#X msg 1563 777 1 5 \, 0.3 100 5 \, 0 1000 500;
#X obj 1133 597 * 1;
#X obj 1173 597 * 2;
#X obj 1213 597 * 3;
#X obj 1253 597 * 4;
#X obj 1293 597 * 5;
#X obj 1213 637 osc~;
#X obj 1163 637 osc~;
#X obj 1113 637 osc~;
#X obj 1313 637 osc~;
#X obj 1133 687 *~ 1;
#X obj 1153 717 +~;
#X obj 1183 747 +~;
#X obj 1213 767 +~;
#X obj 1243 787 +~;
#X obj 1505 629 osc~;
#X obj 1455 629 osc~;
#X obj 1405 629 osc~;
#X obj 1355 629 osc~;
#X obj 1555 629 osc~;
#X obj 1395 709 +~;
#X obj 1425 739 +~;
#X obj 1455 759 +~;
#X obj 1485 779 +~;
#X obj 1375 589 * 6;
#X obj 1415 589 * 7;
#X obj 1455 589 * 8;
#X obj 1493 587 * 9;
#X obj 1535 589 * 10;
#X obj 1173 687 *~ 0.7;
#X obj 1223 687 *~ 0.5;
#X obj 1273 687 *~ 0.35;
#X obj 1323 687 *~ 0.25;
#X obj 1423 677 *~ 0.1;
#X obj 1473 677 *~ 0.07;
#X obj 1523 677 *~ 0.05;
#X obj 1573 677 *~ 0.03;
#X obj 1375 679 *~ 0.15;
#X obj 1363 837 +~;
#X obj 1772 522 mtof;
#X obj 1842 622 osc~;
#X obj 2126 927 *~ 0.1;
#X obj 2127 890 *~;
#X obj 2143 802 vline~;
#X obj 1992 852 lop~ 1200;
#X msg 2142 762 1 5 \, 0.3 100 5 \, 0 1000 500;
#X obj 1712 582 * 1;
#X obj 1752 582 * 2;
#X obj 1792 582 * 3;
#X obj 1832 582 * 4;
#X obj 1872 582 * 5;
#X obj 1792 622 osc~;
#X obj 1742 622 osc~;
#X obj 1692 622 osc~;
#X obj 1892 622 osc~;
#X obj 1712 672 *~ 1;
#X obj 1732 702 +~;
#X obj 1762 732 +~;
#X obj 1792 752 +~;
#X obj 1822 772 +~;
#X obj 2084 614 osc~;
#X obj 2034 614 osc~;
#X obj 1984 614 osc~;
#X obj 1934 614 osc~;
#X obj 2134 614 osc~;
#X obj 1974 694 +~;
#X obj 2004 724 +~;
#X obj 2034 744 +~;
#X obj 2064 764 +~;
#X obj 1954 574 * 6;
#X obj 1994 574 * 7;
#X obj 2034 574 * 8;
#X obj 2072 572 * 9;
#X obj 2114 574 * 10;
#X obj 1752 672 *~ 0.7;
#X obj 1802 672 *~ 0.5;
#X obj 1852 672 *~ 0.35;
#X obj 1902 672 *~ 0.25;
#X obj 2002 662 *~ 0.1;
#X obj 2052 662 *~ 0.07;
#X obj 2102 662 *~ 0.05;
#X obj 2152 662 *~ 0.03;
#X obj 1954 664 *~ 0.15;
#X obj 1942 822 +~;
#X obj 2362 542 mtof;
#X obj 2432 642 osc~;
#X obj 2716 947 *~ 0.1;
#X obj 2717 910 *~;
#X obj 2733 822 vline~;
#X obj 2582 872 lop~ 1200;
#X obj 2050 1190 +~;
#X msg 2732 782 1 5 \, 0.3 100 5 \, 0 1000 500;
#X obj 2302 602 * 1;
#X obj 2342 602 * 2;
#X obj 2382 602 * 3;
#X obj 2422 602 * 4;
#X obj 2462 602 * 5;
#X obj 2382 642 osc~;
#X obj 2332 642 osc~;
#X obj 2282 642 osc~;
#X obj 2482 642 osc~;
#X obj 2302 692 *~ 1;
#X obj 2322 722 +~;
#X obj 2352 752 +~;
#X obj 2382 772 +~;
#X obj 2412 792 +~;
#X obj 2674 634 osc~;
#X obj 2624 634 osc~;
#X obj 2574 634 osc~;
#X obj 2524 634 osc~;
#X obj 2724 634 osc~;
#X obj 2564 714 +~;
#X obj 2594 744 +~;
#X obj 2624 764 +~;
#X obj 2654 784 +~;
#X obj 2544 594 * 6;
#X obj 2584 594 * 7;
#X obj 2624 594 * 8;
#X obj 2662 592 * 9;
#X obj 2704 594 * 10;
#X obj 2342 692 *~ 0.7;
#X obj 2392 692 *~ 0.5;
#X obj 2442 692 *~ 0.35;
#X obj 2492 692 *~ 0.25;
#X obj 2592 682 *~ 0.1;
#X obj 2642 682 *~ 0.07;
#X obj 2692 682 *~ 0.05;
#X obj 2742 682 *~ 0.03;
#X obj 2544 684 *~ 0.15;
#X obj 2532 842 +~;
#X obj 1330 220 poly 5 1;
#X obj 1310 320 route 1 2 3 4 5;
#X obj 1640 1240 dac~;
#X obj 1620 90 vsl 15 128 0 1 0 0 empty empty empty 0 -9 0 10 #fcfcfc
#000000 #000000 0 1;
#X obj 1610 1190 *~;
#X obj 1500 -30 bng 15 250 50 0 empty empty empty 17 7 0 10 #fcfcfc
#000000 #000000;
#X obj 1550 -30 bng 15 250 50 0 empty empty empty 17 7 0 10 #fcfcfc
#000000 #000000;
#X obj 1520 90 f;
#X obj 1430 10 + 12;
#X obj 1300 120 + 0;
#X obj 1630 10 - 12;
#X text 1450 -50 octave up;
#X text 1560 -50 octave down;
#X text 1680 160 master volume;
#N canvas 285 147 450 300 synthwave 0;
#X obj 170 20 inlet;
#X obj 140 220 outlet~;
#X obj 110 60 phasor~;
#X obj 110 85 -~ 0.5;
#X obj 210 60 * 1.005;
#X obj 210 90 phasor~;
#X obj 210 120 -~ 0.5;
#X obj 140 160 +~;
#X obj 140 190 *~ 0.2;
#X connect 0 0 2 0;
#X connect 0 0 4 0;
#X connect 2 0 3 0;
#X connect 3 0 7 0;
#X connect 4 0 5 0;
#X connect 5 0 6 0;
#X connect 6 0 7 1;
#X connect 7 0 8 0;
#X connect 8 0 1 0;
#X restore 1990 230 pd synthwave;
#X obj 1910 210 vradio 15 0 0 3 empty empty empty 0 -8 0 10 #fcfcfc
#000000 #000000 0;
#X obj 1890 290 sel 0 1 2;
#X msg 1890 330 1 0 0;
#X msg 1960 330 0 1 0;
#X msg 2030 330 0 0 1;
#X connect 0 0 24 0;
#X connect 1 0 32 0;
#X connect 1 0 36 0;
#X connect 1 0 35 0;
#X connect 1 0 34 0;
#X connect 1 0 33 0;
#X connect 1 0 55 0;
#X connect 1 0 59 0;
#X connect 1 0 58 0;
#X connect 1 0 57 0;
#X connect 1 0 56 0;
#X connect 2 0 62 0;
#X connect 3 0 25 0;
#X connect 5 0 262 0;
#X connect 6 0 262 0;
#X connect 7 0 262 0;
#X connect 8 0 3 0;
#X connect 9 0 8 1;
#X connect 10 0 8 0;
#X connect 11 0 262 0;
#X connect 12 0 262 0;
#X connect 13 0 262 0;
#X connect 14 0 262 0;
#X connect 15 0 262 0;
#X connect 16 0 262 0;
#X connect 17 0 262 0;
#X connect 18 0 262 0;
#X connect 19 0 262 0;
#X connect 20 0 262 0;
#X connect 21 0 262 0;
#X connect 22 0 262 0;
#X connect 23 0 262 0;
#X connect 24 0 5 0;
#X connect 24 1 11 0;
#X connect 24 2 6 0;
#X connect 24 3 12 0;
#X connect 24 4 7 0;
#X connect 24 5 13 0;
#X connect 24 6 14 0;
#X connect 24 7 15 0;
#X connect 24 8 16 0;
#X connect 24 9 17 0;
#X connect 24 10 18 0;
#X connect 24 11 19 0;
#X connect 24 12 20 0;
#X connect 24 13 21 0;
#X connect 24 14 22 0;
#X connect 24 15 23 0;
#X connect 25 0 26 0;
#X connect 26 0 257 1;
#X connect 27 0 254 0;
#X connect 28 0 262 0;
#X connect 29 0 253 0;
#X connect 29 1 30 0;
#X connect 30 0 253 1;
#X connect 31 0 9 0;
#X connect 32 0 39 0;
#X connect 33 0 38 0;
#X connect 34 0 37 0;
#X connect 35 0 2 0;
#X connect 36 0 40 0;
#X connect 37 0 61 0;
#X connect 38 0 60 0;
#X connect 39 0 41 0;
#X connect 40 0 63 0;
#X connect 41 0 42 0;
#X connect 42 0 43 0;
#X connect 43 0 44 0;
#X connect 44 0 45 0;
#X connect 45 0 69 0;
#X connect 46 0 66 0;
#X connect 47 0 65 0;
#X connect 48 0 64 0;
#X connect 49 0 68 0;
#X connect 50 0 67 0;
#X connect 51 0 52 0;
#X connect 52 0 53 0;
#X connect 53 0 54 0;
#X connect 54 0 69 1;
#X connect 55 0 49 0;
#X connect 56 0 48 0;
#X connect 57 0 47 0;
#X connect 58 0 46 0;
#X connect 59 0 50 0;
#X connect 60 0 42 1;
#X connect 61 0 43 1;
#X connect 62 0 44 1;
#X connect 63 0 45 1;
#X connect 64 0 51 1;
#X connect 65 0 52 1;
#X connect 66 0 53 1;
#X connect 67 0 54 1;
#X connect 68 0 51 0;
#X connect 69 0 10 0;
#X connect 70 0 78 0;
#X connect 70 0 82 0;
#X connect 70 0 81 0;
#X connect 70 0 80 0;
#X connect 70 0 79 0;
#X connect 70 0 101 0;
#X connect 70 0 105 0;
#X connect 70 0 104 0;
#X connect 70 0 103 0;
#X connect 70 0 102 0;
#X connect 71 0 108 0;
#X connect 72 0 76 0;
#X connect 73 0 72 0;
#X connect 74 0 73 1;
#X connect 75 0 73 0;
#X connect 76 0 25 1;
#X connect 77 0 74 0;
#X connect 78 0 85 0;
#X connect 79 0 84 0;
#X connect 80 0 83 0;
#X connect 81 0 71 0;
#X connect 82 0 86 0;
#X connect 83 0 107 0;
#X connect 84 0 106 0;
#X connect 85 0 87 0;
#X connect 86 0 109 0;
#X connect 87 0 88 0;
#X connect 88 0 89 0;
#X connect 89 0 90 0;
#X connect 90 0 91 0;
#X connect 91 0 115 0;
#X connect 92 0 112 0;
#X connect 93 0 111 0;
#X connect 94 0 110 0;
#X connect 95 0 114 0;
#X connect 96 0 113 0;
#X connect 97 0 98 0;
#X connect 98 0 99 0;
#X connect 99 0 100 0;
#X connect 100 0 115 1;
#X connect 101 0 95 0;
#X connect 102 0 94 0;
#X connect 103 0 93 0;
#X connect 104 0 92 0;
#X connect 105 0 96 0;
#X connect 106 0 88 1;
#X connect 107 0 89 1;
#X connect 108 0 90 1;
#X connect 109 0 91 1;
#X connect 110 0 97 1;
#X connect 111 0 98 1;
#X connect 112 0 99 1;
#X connect 113 0 100 1;
#X connect 114 0 97 0;
#X connect 115 0 75 0;
#X connect 116 0 124 0;
#X connect 116 0 128 0;
#X connect 116 0 127 0;
#X connect 116 0 126 0;
#X connect 116 0 125 0;
#X connect 116 0 147 0;
#X connect 116 0 151 0;
#X connect 116 0 150 0;
#X connect 116 0 149 0;
#X connect 116 0 148 0;
#X connect 117 0 154 0;
#X connect 118 0 122 0;
#X connect 119 0 118 0;
#X connect 120 0 119 1;
#X connect 121 0 119 0;
#X connect 122 0 213 1;
#X connect 123 0 120 0;
#X connect 124 0 131 0;
#X connect 125 0 130 0;
#X connect 126 0 129 0;
#X connect 127 0 117 0;
#X connect 128 0 132 0;
#X connect 129 0 153 0;
#X connect 130 0 152 0;
#X connect 131 0 133 0;
#X connect 132 0 155 0;
#X connect 133 0 134 0;
#X connect 134 0 135 0;
#X connect 135 0 136 0;
#X connect 136 0 137 0;
#X connect 137 0 161 0;
#X connect 138 0 158 0;
#X connect 139 0 157 0;
#X connect 140 0 156 0;
#X connect 141 0 160 0;
#X connect 142 0 159 0;
#X connect 143 0 144 0;
#X connect 144 0 145 0;
#X connect 145 0 146 0;
#X connect 146 0 161 1;
#X connect 147 0 141 0;
#X connect 148 0 140 0;
#X connect 149 0 139 0;
#X connect 150 0 138 0;
#X connect 151 0 142 0;
#X connect 152 0 134 1;
#X connect 153 0 135 1;
#X connect 154 0 136 1;
#X connect 155 0 137 1;
#X connect 156 0 143 1;
#X connect 157 0 144 1;
#X connect 158 0 145 1;
#X connect 159 0 146 1;
#X connect 160 0 143 0;
#X connect 161 0 121 0;
#X connect 162 0 169 0;
#X connect 162 0 173 0;
#X connect 162 0 172 0;
#X connect 162 0 171 0;
#X connect 162 0 170 0;
#X connect 162 0 192 0;
#X connect 162 0 196 0;
#X connect 162 0 195 0;
#X connect 162 0 194 0;
#X connect 162 0 193 0;
#X connect 163 0 199 0;
#X connect 164 0 122 1;
#X connect 165 0 164 0;
#X connect 166 0 165 1;
#X connect 167 0 165 0;
#X connect 168 0 166 0;
#X connect 169 0 176 0;
#X connect 170 0 175 0;
#X connect 171 0 174 0;
#X connect 172 0 163 0;
#X connect 173 0 177 0;
#X connect 174 0 198 0;
#X connect 175 0 197 0;
#X connect 176 0 178 0;
#X connect 177 0 200 0;
#X connect 178 0 179 0;
#X connect 179 0 180 0;
#X connect 180 0 181 0;
#X connect 181 0 182 0;
#X connect 182 0 206 0;
#X connect 183 0 203 0;
#X connect 184 0 202 0;
#X connect 185 0 201 0;
#X connect 186 0 205 0;
#X connect 187 0 204 0;
#X connect 188 0 189 0;
#X connect 189 0 190 0;
#X connect 190 0 191 0;
#X connect 191 0 206 1;
#X connect 192 0 186 0;
#X connect 193 0 185 0;
#X connect 194 0 184 0;
#X connect 195 0 183 0;
#X connect 196 0 187 0;
#X connect 197 0 179 1;
#X connect 198 0 180 1;
#X connect 199 0 181 1;
#X connect 200 0 182 1;
#X connect 201 0 188 1;
#X connect 202 0 189 1;
#X connect 203 0 190 1;
#X connect 204 0 191 1;
#X connect 205 0 188 0;
#X connect 206 0 167 0;
#X connect 207 0 215 0;
#X connect 207 0 219 0;
#X connect 207 0 218 0;
#X connect 207 0 217 0;
#X connect 207 0 216 0;
#X connect 207 0 238 0;
#X connect 207 0 242 0;
#X connect 207 0 241 0;
#X connect 207 0 240 0;
#X connect 207 0 239 0;
#X connect 208 0 245 0;
#X connect 209 0 213 0;
#X connect 210 0 209 0;
#X connect 211 0 210 1;
#X connect 212 0 210 0;
#X connect 213 0 26 1;
#X connect 214 0 211 0;
#X connect 215 0 222 0;
#X connect 216 0 221 0;
#X connect 217 0 220 0;
#X connect 218 0 208 0;
#X connect 219 0 223 0;
#X connect 220 0 244 0;
#X connect 221 0 243 0;
#X connect 222 0 224 0;
#X connect 223 0 246 0;
#X connect 224 0 225 0;
#X connect 225 0 226 0;
#X connect 226 0 227 0;
#X connect 227 0 228 0;
#X connect 228 0 252 0;
#X connect 229 0 249 0;
#X connect 230 0 248 0;
#X connect 231 0 247 0;
#X connect 232 0 251 0;
#X connect 233 0 250 0;
#X connect 234 0 235 0;
#X connect 235 0 236 0;
#X connect 236 0 237 0;
#X connect 237 0 252 1;
#X connect 238 0 232 0;
#X connect 239 0 231 0;
#X connect 240 0 230 0;
#X connect 241 0 229 0;
#X connect 242 0 233 0;
#X connect 243 0 225 1;
#X connect 244 0 226 1;
#X connect 245 0 227 1;
#X connect 246 0 228 1;
#X connect 247 0 234 1;
#X connect 248 0 235 1;
#X connect 249 0 236 1;
#X connect 250 0 237 1;
#X connect 251 0 234 0;
#X connect 252 0 212 0;
#X connect 253 0 27 0;
#X connect 253 1 27 1;
#X connect 254 0 1 0;
#X connect 254 0 31 0;
#X connect 254 1 70 0;
#X connect 254 1 77 0;
#X connect 254 2 116 0;
#X connect 254 2 123 0;
#X connect 254 3 162 0;
#X connect 254 3 168 0;
#X connect 254 4 207 0;
#X connect 254 4 214 0;
#X connect 256 0 257 0;
#X connect 257 0 4 0;
#X connect 257 0 255 1;
#X connect 258 0 261 0;
#X connect 258 0 260 0;
#X connect 259 0 260 0;
#X connect 259 0 263 0;
#X connect 260 0 262 1;
#X connect 260 0 261 0;
#X connect 260 0 263 0;
#X connect 261 0 260 1;
#X connect 262 0 29 0;
#X connect 263 0 260 1;
