#N canvas 512 0 1015 786 10;
#N canvas -8 -8 1554 778 drums 0;
#N canvas 367 211 308 406 kick 0;
#X obj 46 21 inlet;
#X obj 170 17 inlet;
#X obj 79 290 outlet~;
#X obj 65 180 osc~;
#X obj 42 146 vline~;
#X obj 132 229 vline~;
#X obj 165 106 f;
#X obj 81 259 *~;
#X msg 42 125 150 0 0 \, 50 75 0;
#X msg 132 196 \$1 1 0 \, 0 75 1;
#X connect 0 0 8 0;
#X connect 0 0 6 0;
#X connect 1 0 6 1;
#X connect 3 0 7 0;
#X connect 4 0 3 0;
#X connect 5 0 7 1;
#X connect 6 0 9 0;
#X connect 7 0 2 0;
#X connect 8 0 4 0;
#X connect 9 0 5 0;
#X restore 177 291 pd kick;
#N canvas 677 223 354 371 hat 0;
#X obj 92 17 inlet;
#X obj 170 15 inlet;
#X obj 43 110 noise~;
#X obj 44 133 hip~ 20000;
#X obj 45 156 hip~ 10000;
#X obj 187 245 vline~;
#X obj 203 76 f;
#X obj 95 239 *~;
#X obj 96 279 outlet~;
#X obj 146 104 random 5;
#X obj 146 130 / 10;
#X obj 146 154 + 0.8;
#X obj 186 189 *;
#X obj 129 59 t b b;
#X msg 187 212 \$1 1 0 \, 0 30 1;
#X connect 0 0 13 0;
#X connect 1 0 6 1;
#X connect 2 0 3 0;
#X connect 3 0 4 0;
#X connect 4 0 7 0;
#X connect 5 0 7 1;
#X connect 6 0 12 1;
#X connect 7 0 8 0;
#X connect 9 0 10 0;
#X connect 10 0 11 0;
#X connect 11 0 12 0;
#X connect 12 0 14 0;
#X connect 13 0 9 0;
#X connect 13 1 6 0;
#X connect 14 0 5 0;
#X restore 387 301 pd hat;
#N canvas 1069 24 737 931 snare 0;
#X obj 135 41 inlet;
#X obj 191 36 inlet;
#X obj 39 96 lop~ 3000;
#X obj 39 121 hip~ 1000;
#X obj 181 137 vline~;
#X obj 181 165 *~;
#X obj 39 71 noise~;
#X obj 106 109 osc~ 180;
#X obj 83 155 +~;
#X obj 181 86 f;
#X msg 181 111 \$1 1 0 \, 0 125 1;
#X obj 84 213 *~;
#X obj 85 237 outlet~;
#X connect 0 0 9 0;
#X connect 1 0 9 1;
#X connect 2 0 3 0;
#X connect 3 0 8 0;
#X connect 4 0 5 0;
#X connect 4 0 5 1;
#X connect 5 0 11 1;
#X connect 6 0 2 0;
#X connect 7 0 8 1;
#X connect 8 0 11 0;
#X connect 9 0 10 0;
#X connect 10 0 4 0;
#X connect 11 0 12 0;
#X restore 277 301 pd snare;
#X obj 147 221 bng 35 250 50 0 empty empty empty 17 7 0 10 #fcfcfc
#000000 #000000;
#X obj 207 191 vsl 12 62 0 1 0 0 empty empty empty 0 -9 0 10 #fcfcfc
#000000 #000000 3600 1;
#X obj 257 231 bng 35 250 50 0 empty empty empty 17 7 0 10 #fcfcfc
#000000 #000000;
#X obj 317 171 vsl 19 62 0 1 0 0 empty empty empty 0 -9 0 10 #fcfcfc
#000000 #000000 3500 1;
#X obj 367 221 bng 35 250 50 0 empty empty empty 17 7 0 10 #fcfcfc
#000000 #000000;
#X obj 417 191 vsl 19 62 0 1 0 0 empty empty empty 0 -9 0 10 #fcfcfc
#000000 #000000 3600 1;
#N canvas 713 240 501 395 counter 0;
#X obj 17 192 outlet;
#X obj 54 11 inlet;
#X obj 17 70 metro 0.25 120 permin;
#X msg 41 37 tempo \$1 permin;
#X obj 282 200 hsl 128 15 0 127 0 0 empty empty empty -2 -8 0 10 #fcfcfc
#000000 #000000 0 1;
#X obj 18 131 f;
#X obj 55 133 + 1;
#X msg 32 99 0;
#X obj 18 158 % 16;
#X obj 11 11 inlet;
#X connect 1 0 3 0;
#X connect 2 0 5 0;
#X connect 3 0 2 0;
#X connect 5 0 6 0;
#X connect 5 0 8 0;
#X connect 6 0 5 1;
#X connect 7 0 5 1;
#X connect 8 0 0 0;
#X connect 9 0 2 0;
#X connect 9 0 7 0;
#X restore 177 -29 pd counter;
#X floatatom 177 1 5 0 0 0 - - -, f 5;
#X obj 287 -39 hsl 128 15 20 240 0 0 empty empty empty -2 -8 0 10 #fcfcfc
#000000 #000000 2400 1;
#N canvas 0 0 450 300 (subpatch) 0;
#X array array1 16 float 3 black black;
#A 0 0 2 2 7 3 7 2 2 0 2 2 7 3 7 2 7;
#X coords 0 6 16 0 200 140 1;
#X restore 557 -79 graph;
#X obj 594 433 array set array1;
#X msg 594 307 0 2 3 4 5 6 0 1 2 3 4 5 6 0 1 2;
#X obj 177 31 hradio 15 0 0 16 empty empty empty 0 -8 0 10 #fcfcfc
#000000 #000000 0;
#X obj 167 -69 tgl 15 0 empty empty empty 17 7 0 10 #fcfcfc #000000
#000000 0 1;
#X obj 147 71 tabread array1;
#X obj 157 121 select 0 1 2 3 4 5 6;
#X msg 532 261 0 2 2 7 3 7 2 2 0 2 2 7 3 7 2 7;
#X msg 642 351 4 0 0 0 6 0 0 0 4 0 0 0 6 0 0 0;
#X text 167 -99 START / STOP;
#X text 287 -69 TEMPO (BPM);
#X obj 297 431 throw~ drum_mix;
#X obj 610 156 key;
#X obj 610 201 select 55 56 57;
#X text 746 261 key: 7;
#X text 812 305 key: 8;
#X text 860 352 key: 9;
#X connect 0 0 23 0;
#X connect 1 0 23 0;
#X connect 2 0 23 0;
#X connect 3 0 0 0;
#X connect 4 0 0 1;
#X connect 5 0 2 0;
#X connect 6 0 2 1;
#X connect 7 0 1 0;
#X connect 8 0 1 1;
#X connect 9 0 10 0;
#X connect 10 0 15 0;
#X connect 11 0 9 1;
#X connect 14 0 13 0;
#X connect 15 0 17 0;
#X connect 16 0 9 0;
#X connect 17 0 18 0;
#X connect 18 0 3 0;
#X connect 18 1 5 0;
#X connect 18 2 7 0;
#X connect 18 3 3 0;
#X connect 18 3 5 0;
#X connect 18 4 3 0;
#X connect 18 4 7 0;
#X connect 18 5 5 0;
#X connect 18 5 7 0;
#X connect 18 6 3 0;
#X connect 18 6 5 0;
#X connect 18 6 7 0;
#X connect 19 0 13 0;
#X connect 20 0 13 0;
#X connect 24 0 25 0;
#X connect 25 0 19 0;
#X connect 25 1 14 0;
#X connect 25 2 20 0;
#X restore 60 194 pd drums;
#N canvas 512 0 1030 769 mixer 0;
#X obj 74 186 catch~ synth_mix;
#X obj 147 406 +~;
#X obj 147 859 dac~;
#X obj 327 270 catch~ drum_mix;
#X obj 148 355 *~;
#X obj 327 356 *~;
#X obj 147 822 *~;
#X obj 163 304 hsl 98 19 0 1 0 0 empty empty empty -2 -8 0 10 #fcfcfc
#000000 #000000 4600 1;
#X obj 342 303 hsl 98 19 0 1 0 0 empty empty empty -2 -8 0 10 #fcfcfc
#000000 #000000 4400 1;
#X text 62 308 synth volume;
#X text 459 305 drum volume;
#X text 184 758 master volume;
#X obj 166 454 rev2~ 80 90 3000 20;
#X obj 147 696 +~;
#X obj 175 781 hsl 98 19 0 1 0 0 empty empty empty -2 -8 0 10 #fcfcfc
#000000 #000000 4900 1;
#X text 75 452 reverb (yankı yapıyor), f 8;
#X text 495 92 80: reverb level / room size (odanın ne kadar büyük
hissedileceği), f 61;
#X text 496 129 90: liveness (yansıma ne kadar süre devam edecek)
;
#X text 496 155 3000: crossover frequency (hz);
#X text 496 179 20: high-frequency damping (yüksek frekansların ne
kadar hızlı kaybolacağı);
#X obj 198 187 catch~ synthwave_mix;
#X obj 198 234 *~;
#X obj 148 280 +~;
#X obj 74 233 *~;
#X obj 156 58 select 49 50;
#X obj 156 26 key;
#X msg 89 131 1;
#X msg 129 131 0;
#X msg 257 130 1;
#X msg 216 130 0;
#X text 196 25 piano mode;
#X text 16 187 key: 1;
#X text 340 188 key: 2;
#X obj 364 407 delwrite~ delaybuf 1000;
#X obj 459 598 delread~ delaybuf 350;
#X text 632 392 delay;
#X obj 147 736 +~;
#X text 494 66 REVERB:;
#X obj 582 654 *~;
#X obj 635 425 key;
#X obj 635 459 select 53;
#X text 703 460 key: 5;
#X obj 635 500 tgl 23 0 empty empty empty 17 7 0 10 #fcfcfc #000000
#000000 1 1;
#X obj 634 548 select 0 1;
#X msg 635 599 0;
#X msg 681 601 0.3;
#X obj 167 666 *~;
#X obj 317 510 tgl 23 0 empty empty empty 17 7 0 10 #fcfcfc #000000
#000000 1 1;
#X obj 316 558 select 0 1;
#X obj 317 469 select 52;
#X text 385 470 key: 4;
#X msg 316 602 0;
#X msg 360 602 0.5;
#X obj 316 435 key;
#X connect 0 0 23 0;
#X connect 1 0 12 0;
#X connect 1 0 13 0;
#X connect 1 0 33 0;
#X connect 3 0 5 0;
#X connect 4 0 1 0;
#X connect 5 0 1 1;
#X connect 6 0 2 0;
#X connect 6 0 2 1;
#X connect 7 0 4 1;
#X connect 8 0 5 1;
#X connect 12 0 46 0;
#X connect 13 0 36 0;
#X connect 14 0 6 1;
#X connect 20 0 21 0;
#X connect 21 0 22 1;
#X connect 22 0 4 0;
#X connect 23 0 22 0;
#X connect 24 0 26 0;
#X connect 24 0 27 0;
#X connect 24 1 28 0;
#X connect 24 1 29 0;
#X connect 25 0 24 0;
#X connect 26 0 23 1;
#X connect 27 0 21 1;
#X connect 28 0 21 1;
#X connect 29 0 23 1;
#X connect 34 0 38 0;
#X connect 36 0 6 0;
#X connect 38 0 36 1;
#X connect 39 0 40 0;
#X connect 40 0 42 0;
#X connect 42 0 43 0;
#X connect 43 0 44 0;
#X connect 43 1 45 0;
#X connect 44 0 38 1;
#X connect 45 0 38 1;
#X connect 46 0 13 1;
#X connect 47 0 48 0;
#X connect 48 0 51 0;
#X connect 48 1 52 0;
#X connect 49 0 47 0;
#X connect 51 0 46 1;
#X connect 52 0 46 1;
#X connect 53 0 49 0;
#X restore 59 249 pd mixer;
#N canvas 0 0 1538 762 synthwave 0;
#X obj 206 -160 mtof;
#X obj 206 -135 phasor~;
#X msg 266 -80 1 5;
#X msg 316 -80 0 50;
#X obj 266 -50 vline~;
#X obj 206 -50 *~;
#X obj 389 -158 mtof;
#X obj 389 -133 phasor~;
#X msg 449 -78 1 5;
#X msg 496 -80 0 50;
#X obj 449 -48 vline~;
#X obj 389 -48 *~;
#X obj 558 -157 mtof;
#X obj 558 -132 phasor~;
#X msg 618 -77 1 5;
#X msg 668 -77 0 50;
#X obj 618 -47 vline~;
#X obj 558 -47 *~;
#X obj 728 -148 mtof;
#X obj 728 -123 phasor~;
#X msg 788 -68 1 5;
#X msg 836 -70 0 50;
#X obj 788 -38 vline~;
#X obj 728 -38 *~;
#X obj 37 -158 mtof;
#X obj 37 -133 phasor~;
#X msg 97 -78 1 5;
#X msg 147 -78 0 50;
#X obj 97 -48 vline~;
#X obj 37 -48 *~;
#X obj 176 80 +~;
#X obj 66 10 *~ 0.1;
#X obj 216 0 *~ 0.1;
#X obj 396 10 *~ 0.1;
#X obj 536 0 *~ 0.1;
#X obj 726 0 *~ 0.1;
#X obj 286 90 +~;
#X obj 466 90 +~;
#X obj 656 90 +~;
#X obj 96 -130 select 0;
#X obj 276 -130 select 0;
#X obj 446 -120 select 0;
#X obj 616 -120 select 0;
#X obj 796 -120 select 0;
#X obj 406 -740 keyname;
#X obj 336 -310 pack f f f;
#X obj 86 -200 unpack f f;
#X obj 236 -200 unpack f f;
#X obj 426 -200 unpack f f;
#X obj 616 -200 unpack f f;
#X obj 796 -200 unpack f f;
#X msg 166 -570 60;
#X msg 206 -570 61;
#X msg 246 -570 62;
#X msg 286 -570 63;
#X msg 326 -570 64;
#X msg 366 -570 65;
#X msg 406 -570 66;
#X msg 446 -570 67;
#X msg 486 -570 68;
#X msg 526 -570 69;
#X msg 566 -570 70;
#X msg 606 -570 71;
#X msg 646 -570 72;
#X msg 686 -570 73;
#X msg 726 -570 74;
#X msg 766 -570 75;
#X obj 556 -710 sel 1 0;
#X obj 396 -270 route 1 2 3 4 5;
#X obj 486 -350 print;
#X msg 556 -680 1;
#X msg 596 -680 0;
#X obj 286 -470 t f f;
#X obj 416 -400 f;
#X obj 586 -420 t b f;
#X obj 336 -340 poly 5 0;
#X obj 166 -660 sel a w s e d f t g y h u j k o l p;
#X obj 646 140 throw~ synthwave_mix;
#X connect 0 0 1 0;
#X connect 1 0 5 0;
#X connect 2 0 4 0;
#X connect 3 0 4 0;
#X connect 4 0 5 1;
#X connect 5 0 32 0;
#X connect 6 0 7 0;
#X connect 7 0 11 0;
#X connect 8 0 10 0;
#X connect 9 0 10 0;
#X connect 10 0 11 1;
#X connect 11 0 33 0;
#X connect 12 0 13 0;
#X connect 13 0 17 0;
#X connect 14 0 16 0;
#X connect 15 0 16 0;
#X connect 16 0 17 1;
#X connect 17 0 34 0;
#X connect 18 0 19 0;
#X connect 19 0 23 0;
#X connect 20 0 22 0;
#X connect 21 0 22 0;
#X connect 22 0 23 1;
#X connect 23 0 35 0;
#X connect 24 0 25 0;
#X connect 25 0 29 0;
#X connect 26 0 28 0;
#X connect 27 0 28 0;
#X connect 28 0 29 1;
#X connect 29 0 31 0;
#X connect 30 0 36 0;
#X connect 31 0 30 0;
#X connect 32 0 30 1;
#X connect 33 0 36 1;
#X connect 34 0 37 1;
#X connect 35 0 38 1;
#X connect 36 0 37 0;
#X connect 37 0 38 0;
#X connect 38 0 77 0;
#X connect 39 0 27 0;
#X connect 39 1 26 0;
#X connect 40 0 3 0;
#X connect 40 1 2 0;
#X connect 41 0 9 0;
#X connect 41 1 8 0;
#X connect 42 0 15 0;
#X connect 42 1 14 0;
#X connect 43 0 21 0;
#X connect 43 1 20 0;
#X connect 44 0 67 0;
#X connect 44 1 76 0;
#X connect 45 0 68 0;
#X connect 45 0 69 0;
#X connect 46 0 24 0;
#X connect 46 1 39 0;
#X connect 47 0 0 0;
#X connect 47 1 40 0;
#X connect 48 0 6 0;
#X connect 48 1 41 0;
#X connect 49 0 12 0;
#X connect 49 1 42 0;
#X connect 50 0 18 0;
#X connect 50 1 43 0;
#X connect 51 0 72 0;
#X connect 52 0 72 0;
#X connect 53 0 72 0;
#X connect 54 0 72 0;
#X connect 55 0 72 0;
#X connect 56 0 72 0;
#X connect 57 0 72 0;
#X connect 58 0 72 0;
#X connect 59 0 72 0;
#X connect 60 0 72 0;
#X connect 61 0 72 0;
#X connect 62 0 72 0;
#X connect 63 0 72 0;
#X connect 64 0 72 0;
#X connect 65 0 72 0;
#X connect 66 0 72 0;
#X connect 67 0 70 0;
#X connect 67 1 71 0;
#X connect 68 0 46 0;
#X connect 68 1 47 0;
#X connect 68 2 48 0;
#X connect 68 3 49 0;
#X connect 68 4 50 0;
#X connect 70 0 74 0;
#X connect 71 0 74 0;
#X connect 72 1 73 1;
#X connect 73 0 75 0;
#X connect 74 0 73 0;
#X connect 74 1 75 1;
#X connect 75 0 45 0;
#X connect 75 1 45 1;
#X connect 75 2 45 2;
#X connect 76 0 51 0;
#X connect 76 1 52 0;
#X connect 76 2 53 0;
#X connect 76 3 54 0;
#X connect 76 4 55 0;
#X connect 76 5 56 0;
#X connect 76 6 57 0;
#X connect 76 7 58 0;
#X connect 76 8 59 0;
#X connect 76 9 60 0;
#X connect 76 10 61 0;
#X connect 76 11 62 0;
#X connect 76 12 63 0;
#X connect 76 13 64 0;
#X connect 76 14 65 0;
#X connect 76 15 66 0;
#X restore 132 158 pd synthwave;
#N canvas 262 0 1014 762 piano 1;
#X obj 1223 60 key;
#X obj 83 620 mtof;
#X obj 153 720 osc~;
#X obj 437 1025 *~ 0.1;
#X msg 1109 165 60;
#X msg 1164 165 62;
#X msg 1215 165 64;
#X obj 438 988 *~;
#X obj 454 900 vline~;
#X obj 303 950 lop~ 1200;
#X msg 1135 187 61;
#X msg 1195 187 63;
#X msg 1245 187 65;
#X msg 1265 167 66;
#X msg 1295 187 67;
#X msg 1317 165 68;
#X msg 1343 187 69;
#X msg 1369 165 70;
#X msg 1395 187 71;
#X msg 1421 165 72;
#X msg 1447 187 73;
#X msg 1471 165 74;
#X msg 1497 187 75;
#X obj 1195 97 select 97 119 115 101 100 102 116 103 121 104 117 106
107 111 108 112;
#X obj 573 1190 +~;
#X obj 1773 1290 +~;
#X obj 1503 410 pack 0 0;
#X msg 1195 187 63;
#X obj 1423 300 t f b;
#X msg 1513 330 100;
#X msg 453 860 1 5 \, 0.3 100 5 \, 0 1000 500;
#X obj 23 680 * 1;
#X obj 63 680 * 2;
#X obj 103 680 * 3;
#X obj 143 680 * 4;
#X obj 183 680 * 5;
#X obj 103 720 osc~;
#X obj 53 720 osc~;
#X obj 3 720 osc~;
#X obj 203 720 osc~;
#X obj 23 770 *~ 1;
#X obj 43 800 +~;
#X obj 73 830 +~;
#X obj 103 850 +~;
#X obj 133 870 +~;
#X obj 395 712 osc~;
#X obj 345 712 osc~;
#X obj 295 712 osc~;
#X obj 245 712 osc~;
#X obj 445 712 osc~;
#X obj 285 792 +~;
#X obj 315 822 +~;
#X obj 345 842 +~;
#X obj 375 862 +~;
#X obj 265 672 * 6;
#X obj 305 672 * 7;
#X obj 345 672 * 8;
#X obj 383 670 * 9;
#X obj 425 672 * 10;
#X obj 63 770 *~ 0.7;
#X obj 113 770 *~ 0.5;
#X obj 163 770 *~ 0.35;
#X obj 213 770 *~ 0.25;
#X obj 313 760 *~ 0.1;
#X obj 363 760 *~ 0.07;
#X obj 413 760 *~ 0.05;
#X obj 463 760 *~ 0.03;
#X obj 265 762 *~ 0.15;
#X obj 253 920 +~;
#X obj 795 662 mtof;
#X obj 865 762 osc~;
#X obj 1149 1067 *~ 0.1;
#X obj 1150 1030 *~;
#X obj 1166 942 vline~;
#X obj 1015 992 lop~ 1200;
#X obj 913 1170 +~;
#X msg 1165 902 1 5 \, 0.3 100 5 \, 0 1000 500;
#X obj 735 722 * 1;
#X obj 775 722 * 2;
#X obj 815 722 * 3;
#X obj 855 722 * 4;
#X obj 895 722 * 5;
#X obj 815 762 osc~;
#X obj 765 762 osc~;
#X obj 715 762 osc~;
#X obj 915 762 osc~;
#X obj 735 812 *~ 1;
#X obj 755 842 +~;
#X obj 785 872 +~;
#X obj 815 892 +~;
#X obj 845 912 +~;
#X obj 1107 754 osc~;
#X obj 1057 754 osc~;
#X obj 1007 754 osc~;
#X obj 957 754 osc~;
#X obj 1157 754 osc~;
#X obj 997 834 +~;
#X obj 1027 864 +~;
#X obj 1057 884 +~;
#X obj 1087 904 +~;
#X obj 977 714 * 6;
#X obj 1017 714 * 7;
#X obj 1057 714 * 8;
#X obj 1095 712 * 9;
#X obj 1137 714 * 10;
#X obj 775 812 *~ 0.7;
#X obj 825 812 *~ 0.5;
#X obj 875 812 *~ 0.35;
#X obj 925 812 *~ 0.25;
#X obj 1025 802 *~ 0.1;
#X obj 1075 802 *~ 0.07;
#X obj 1125 802 *~ 0.05;
#X obj 1175 802 *~ 0.03;
#X obj 977 804 *~ 0.15;
#X obj 965 962 +~;
#X obj 1376 677 mtof;
#X obj 1446 777 osc~;
#X obj 1730 1082 *~ 0.1;
#X obj 1731 1045 *~;
#X obj 1747 957 vline~;
#X obj 1596 1007 lop~ 1200;
#X obj 1893 1220 +~;
#X msg 1746 917 1 5 \, 0.3 100 5 \, 0 1000 500;
#X obj 1316 737 * 1;
#X obj 1356 737 * 2;
#X obj 1396 737 * 3;
#X obj 1436 737 * 4;
#X obj 1476 737 * 5;
#X obj 1396 777 osc~;
#X obj 1346 777 osc~;
#X obj 1296 777 osc~;
#X obj 1496 777 osc~;
#X obj 1316 827 *~ 1;
#X obj 1336 857 +~;
#X obj 1366 887 +~;
#X obj 1396 907 +~;
#X obj 1426 927 +~;
#X obj 1688 769 osc~;
#X obj 1638 769 osc~;
#X obj 1588 769 osc~;
#X obj 1538 769 osc~;
#X obj 1738 769 osc~;
#X obj 1578 849 +~;
#X obj 1608 879 +~;
#X obj 1638 899 +~;
#X obj 1668 919 +~;
#X obj 1558 729 * 6;
#X obj 1598 729 * 7;
#X obj 1638 729 * 8;
#X obj 1676 727 * 9;
#X obj 1718 729 * 10;
#X obj 1356 827 *~ 0.7;
#X obj 1406 827 *~ 0.5;
#X obj 1456 827 *~ 0.35;
#X obj 1506 827 *~ 0.25;
#X obj 1606 817 *~ 0.1;
#X obj 1656 817 *~ 0.07;
#X obj 1706 817 *~ 0.05;
#X obj 1756 817 *~ 0.03;
#X obj 1558 819 *~ 0.15;
#X obj 1546 977 +~;
#X obj 1955 662 mtof;
#X obj 2025 762 osc~;
#X obj 2309 1067 *~ 0.1;
#X obj 2310 1030 *~;
#X obj 2326 942 vline~;
#X obj 2175 992 lop~ 1200;
#X msg 2325 902 1 5 \, 0.3 100 5 \, 0 1000 500;
#X obj 1895 722 * 1;
#X obj 1935 722 * 2;
#X obj 1975 722 * 3;
#X obj 2015 722 * 4;
#X obj 2055 722 * 5;
#X obj 1975 762 osc~;
#X obj 1925 762 osc~;
#X obj 1875 762 osc~;
#X obj 2075 762 osc~;
#X obj 1895 812 *~ 1;
#X obj 1915 842 +~;
#X obj 1945 872 +~;
#X obj 1975 892 +~;
#X obj 2005 912 +~;
#X obj 2267 754 osc~;
#X obj 2217 754 osc~;
#X obj 2167 754 osc~;
#X obj 2117 754 osc~;
#X obj 2317 754 osc~;
#X obj 2157 834 +~;
#X obj 2187 864 +~;
#X obj 2217 884 +~;
#X obj 2247 904 +~;
#X obj 2137 714 * 6;
#X obj 2177 714 * 7;
#X obj 2217 714 * 8;
#X obj 2255 712 * 9;
#X obj 2297 714 * 10;
#X obj 1935 812 *~ 0.7;
#X obj 1985 812 *~ 0.5;
#X obj 2035 812 *~ 0.35;
#X obj 2085 812 *~ 0.25;
#X obj 2185 802 *~ 0.1;
#X obj 2235 802 *~ 0.07;
#X obj 2285 802 *~ 0.05;
#X obj 2335 802 *~ 0.03;
#X obj 2137 804 *~ 0.15;
#X obj 2125 962 +~;
#X obj 2545 682 mtof;
#X obj 2615 782 osc~;
#X obj 2899 1087 *~ 0.1;
#X obj 2900 1050 *~;
#X obj 2916 962 vline~;
#X obj 2765 1012 lop~ 1200;
#X obj 2233 1330 +~;
#X msg 2915 922 1 5 \, 0.3 100 5 \, 0 1000 500;
#X obj 2485 742 * 1;
#X obj 2525 742 * 2;
#X obj 2565 742 * 3;
#X obj 2605 742 * 4;
#X obj 2645 742 * 5;
#X obj 2565 782 osc~;
#X obj 2515 782 osc~;
#X obj 2465 782 osc~;
#X obj 2665 782 osc~;
#X obj 2485 832 *~ 1;
#X obj 2505 862 +~;
#X obj 2535 892 +~;
#X obj 2565 912 +~;
#X obj 2595 932 +~;
#X obj 2857 774 osc~;
#X obj 2807 774 osc~;
#X obj 2757 774 osc~;
#X obj 2707 774 osc~;
#X obj 2907 774 osc~;
#X obj 2747 854 +~;
#X obj 2777 884 +~;
#X obj 2807 904 +~;
#X obj 2837 924 +~;
#X obj 2727 734 * 6;
#X obj 2767 734 * 7;
#X obj 2807 734 * 8;
#X obj 2845 732 * 9;
#X obj 2887 734 * 10;
#X obj 2525 832 *~ 0.7;
#X obj 2575 832 *~ 0.5;
#X obj 2625 832 *~ 0.35;
#X obj 2675 832 *~ 0.25;
#X obj 2775 822 *~ 0.1;
#X obj 2825 822 *~ 0.07;
#X obj 2875 822 *~ 0.05;
#X obj 2925 822 *~ 0.03;
#X obj 2727 824 *~ 0.15;
#X obj 2715 982 +~;
#X obj 1513 360 poly 5 1;
#X obj 1493 460 route 1 2 3 4 5;
#X obj 1803 230 vsl 26 128 0 1 0 0 empty empty empty 0 -9 0 10 #fcfcfc
#000000 #000000 7100 1;
#X obj 1793 1330 *~;
#X obj 1683 110 bng 15 250 50 0 empty empty empty 17 7 0 10 #fcfcfc
#000000 #000000;
#X obj 1733 110 bng 15 250 50 0 empty empty empty 17 7 0 10 #fcfcfc
#000000 #000000;
#X obj 1703 230 f;
#X obj 1613 150 + 12;
#X obj 1483 260 + 0;
#X obj 1813 150 - 12;
#X text 1633 90 octave up;
#X text 1743 90 octave down;
#X text 1863 300 master volume;
#X obj 1791 1368 throw~ synth_mix;
#X connect 0 0 23 0;
#X connect 1 0 31 0;
#X connect 1 0 35 0;
#X connect 1 0 34 0;
#X connect 1 0 33 0;
#X connect 1 0 32 0;
#X connect 1 0 54 0;
#X connect 1 0 58 0;
#X connect 1 0 57 0;
#X connect 1 0 56 0;
#X connect 1 0 55 0;
#X connect 2 0 61 0;
#X connect 3 0 24 0;
#X connect 4 0 260 0;
#X connect 5 0 260 0;
#X connect 6 0 260 0;
#X connect 7 0 3 0;
#X connect 8 0 7 1;
#X connect 9 0 7 0;
#X connect 10 0 260 0;
#X connect 11 0 260 0;
#X connect 12 0 260 0;
#X connect 13 0 260 0;
#X connect 14 0 260 0;
#X connect 15 0 260 0;
#X connect 16 0 260 0;
#X connect 17 0 260 0;
#X connect 18 0 260 0;
#X connect 19 0 260 0;
#X connect 20 0 260 0;
#X connect 21 0 260 0;
#X connect 22 0 260 0;
#X connect 23 0 4 0;
#X connect 23 1 10 0;
#X connect 23 2 5 0;
#X connect 23 3 11 0;
#X connect 23 4 6 0;
#X connect 23 5 12 0;
#X connect 23 6 13 0;
#X connect 23 7 14 0;
#X connect 23 8 15 0;
#X connect 23 9 16 0;
#X connect 23 10 17 0;
#X connect 23 11 18 0;
#X connect 23 12 19 0;
#X connect 23 13 20 0;
#X connect 23 14 21 0;
#X connect 23 15 22 0;
#X connect 24 0 25 0;
#X connect 25 0 255 1;
#X connect 26 0 253 0;
#X connect 27 0 260 0;
#X connect 28 0 252 0;
#X connect 28 1 29 0;
#X connect 29 0 252 1;
#X connect 30 0 8 0;
#X connect 31 0 38 0;
#X connect 32 0 37 0;
#X connect 33 0 36 0;
#X connect 34 0 2 0;
#X connect 35 0 39 0;
#X connect 36 0 60 0;
#X connect 37 0 59 0;
#X connect 38 0 40 0;
#X connect 39 0 62 0;
#X connect 40 0 41 0;
#X connect 41 0 42 0;
#X connect 42 0 43 0;
#X connect 43 0 44 0;
#X connect 44 0 68 0;
#X connect 45 0 65 0;
#X connect 46 0 64 0;
#X connect 47 0 63 0;
#X connect 48 0 67 0;
#X connect 49 0 66 0;
#X connect 50 0 51 0;
#X connect 51 0 52 0;
#X connect 52 0 53 0;
#X connect 53 0 68 1;
#X connect 54 0 48 0;
#X connect 55 0 47 0;
#X connect 56 0 46 0;
#X connect 57 0 45 0;
#X connect 58 0 49 0;
#X connect 59 0 41 1;
#X connect 60 0 42 1;
#X connect 61 0 43 1;
#X connect 62 0 44 1;
#X connect 63 0 50 1;
#X connect 64 0 51 1;
#X connect 65 0 52 1;
#X connect 66 0 53 1;
#X connect 67 0 50 0;
#X connect 68 0 9 0;
#X connect 69 0 77 0;
#X connect 69 0 81 0;
#X connect 69 0 80 0;
#X connect 69 0 79 0;
#X connect 69 0 78 0;
#X connect 69 0 100 0;
#X connect 69 0 104 0;
#X connect 69 0 103 0;
#X connect 69 0 102 0;
#X connect 69 0 101 0;
#X connect 70 0 107 0;
#X connect 71 0 75 0;
#X connect 72 0 71 0;
#X connect 73 0 72 1;
#X connect 74 0 72 0;
#X connect 75 0 24 1;
#X connect 76 0 73 0;
#X connect 77 0 84 0;
#X connect 78 0 83 0;
#X connect 79 0 82 0;
#X connect 80 0 70 0;
#X connect 81 0 85 0;
#X connect 82 0 106 0;
#X connect 83 0 105 0;
#X connect 84 0 86 0;
#X connect 85 0 108 0;
#X connect 86 0 87 0;
#X connect 87 0 88 0;
#X connect 88 0 89 0;
#X connect 89 0 90 0;
#X connect 90 0 114 0;
#X connect 91 0 111 0;
#X connect 92 0 110 0;
#X connect 93 0 109 0;
#X connect 94 0 113 0;
#X connect 95 0 112 0;
#X connect 96 0 97 0;
#X connect 97 0 98 0;
#X connect 98 0 99 0;
#X connect 99 0 114 1;
#X connect 100 0 94 0;
#X connect 101 0 93 0;
#X connect 102 0 92 0;
#X connect 103 0 91 0;
#X connect 104 0 95 0;
#X connect 105 0 87 1;
#X connect 106 0 88 1;
#X connect 107 0 89 1;
#X connect 108 0 90 1;
#X connect 109 0 96 1;
#X connect 110 0 97 1;
#X connect 111 0 98 1;
#X connect 112 0 99 1;
#X connect 113 0 96 0;
#X connect 114 0 74 0;
#X connect 115 0 123 0;
#X connect 115 0 127 0;
#X connect 115 0 126 0;
#X connect 115 0 125 0;
#X connect 115 0 124 0;
#X connect 115 0 146 0;
#X connect 115 0 150 0;
#X connect 115 0 149 0;
#X connect 115 0 148 0;
#X connect 115 0 147 0;
#X connect 116 0 153 0;
#X connect 117 0 121 0;
#X connect 118 0 117 0;
#X connect 119 0 118 1;
#X connect 120 0 118 0;
#X connect 121 0 212 1;
#X connect 122 0 119 0;
#X connect 123 0 130 0;
#X connect 124 0 129 0;
#X connect 125 0 128 0;
#X connect 126 0 116 0;
#X connect 127 0 131 0;
#X connect 128 0 152 0;
#X connect 129 0 151 0;
#X connect 130 0 132 0;
#X connect 131 0 154 0;
#X connect 132 0 133 0;
#X connect 133 0 134 0;
#X connect 134 0 135 0;
#X connect 135 0 136 0;
#X connect 136 0 160 0;
#X connect 137 0 157 0;
#X connect 138 0 156 0;
#X connect 139 0 155 0;
#X connect 140 0 159 0;
#X connect 141 0 158 0;
#X connect 142 0 143 0;
#X connect 143 0 144 0;
#X connect 144 0 145 0;
#X connect 145 0 160 1;
#X connect 146 0 140 0;
#X connect 147 0 139 0;
#X connect 148 0 138 0;
#X connect 149 0 137 0;
#X connect 150 0 141 0;
#X connect 151 0 133 1;
#X connect 152 0 134 1;
#X connect 153 0 135 1;
#X connect 154 0 136 1;
#X connect 155 0 142 1;
#X connect 156 0 143 1;
#X connect 157 0 144 1;
#X connect 158 0 145 1;
#X connect 159 0 142 0;
#X connect 160 0 120 0;
#X connect 161 0 168 0;
#X connect 161 0 172 0;
#X connect 161 0 171 0;
#X connect 161 0 170 0;
#X connect 161 0 169 0;
#X connect 161 0 191 0;
#X connect 161 0 195 0;
#X connect 161 0 194 0;
#X connect 161 0 193 0;
#X connect 161 0 192 0;
#X connect 162 0 198 0;
#X connect 163 0 121 1;
#X connect 164 0 163 0;
#X connect 165 0 164 1;
#X connect 166 0 164 0;
#X connect 167 0 165 0;
#X connect 168 0 175 0;
#X connect 169 0 174 0;
#X connect 170 0 173 0;
#X connect 171 0 162 0;
#X connect 172 0 176 0;
#X connect 173 0 197 0;
#X connect 174 0 196 0;
#X connect 175 0 177 0;
#X connect 176 0 199 0;
#X connect 177 0 178 0;
#X connect 178 0 179 0;
#X connect 179 0 180 0;
#X connect 180 0 181 0;
#X connect 181 0 205 0;
#X connect 182 0 202 0;
#X connect 183 0 201 0;
#X connect 184 0 200 0;
#X connect 185 0 204 0;
#X connect 186 0 203 0;
#X connect 187 0 188 0;
#X connect 188 0 189 0;
#X connect 189 0 190 0;
#X connect 190 0 205 1;
#X connect 191 0 185 0;
#X connect 192 0 184 0;
#X connect 193 0 183 0;
#X connect 194 0 182 0;
#X connect 195 0 186 0;
#X connect 196 0 178 1;
#X connect 197 0 179 1;
#X connect 198 0 180 1;
#X connect 199 0 181 1;
#X connect 200 0 187 1;
#X connect 201 0 188 1;
#X connect 202 0 189 1;
#X connect 203 0 190 1;
#X connect 204 0 187 0;
#X connect 205 0 166 0;
#X connect 206 0 214 0;
#X connect 206 0 218 0;
#X connect 206 0 217 0;
#X connect 206 0 216 0;
#X connect 206 0 215 0;
#X connect 206 0 237 0;
#X connect 206 0 241 0;
#X connect 206 0 240 0;
#X connect 206 0 239 0;
#X connect 206 0 238 0;
#X connect 207 0 244 0;
#X connect 208 0 212 0;
#X connect 209 0 208 0;
#X connect 210 0 209 1;
#X connect 211 0 209 0;
#X connect 212 0 25 1;
#X connect 213 0 210 0;
#X connect 214 0 221 0;
#X connect 215 0 220 0;
#X connect 216 0 219 0;
#X connect 217 0 207 0;
#X connect 218 0 222 0;
#X connect 219 0 243 0;
#X connect 220 0 242 0;
#X connect 221 0 223 0;
#X connect 222 0 245 0;
#X connect 223 0 224 0;
#X connect 224 0 225 0;
#X connect 225 0 226 0;
#X connect 226 0 227 0;
#X connect 227 0 251 0;
#X connect 228 0 248 0;
#X connect 229 0 247 0;
#X connect 230 0 246 0;
#X connect 231 0 250 0;
#X connect 232 0 249 0;
#X connect 233 0 234 0;
#X connect 234 0 235 0;
#X connect 235 0 236 0;
#X connect 236 0 251 1;
#X connect 237 0 231 0;
#X connect 238 0 230 0;
#X connect 239 0 229 0;
#X connect 240 0 228 0;
#X connect 241 0 232 0;
#X connect 242 0 224 1;
#X connect 243 0 225 1;
#X connect 244 0 226 1;
#X connect 245 0 227 1;
#X connect 246 0 233 1;
#X connect 247 0 234 1;
#X connect 248 0 235 1;
#X connect 249 0 236 1;
#X connect 250 0 233 0;
#X connect 251 0 211 0;
#X connect 252 0 26 0;
#X connect 252 1 26 1;
#X connect 253 0 1 0;
#X connect 253 0 30 0;
#X connect 253 1 69 0;
#X connect 253 1 76 0;
#X connect 253 2 115 0;
#X connect 253 2 122 0;
#X connect 253 3 161 0;
#X connect 253 3 167 0;
#X connect 253 4 206 0;
#X connect 253 4 213 0;
#X connect 254 0 255 0;
#X connect 255 0 265 0;
#X connect 256 0 259 0;
#X connect 256 0 258 0;
#X connect 257 0 258 0;
#X connect 257 0 261 0;
#X connect 258 0 260 1;
#X connect 258 0 259 0;
#X connect 258 0 261 0;
#X connect 259 0 258 1;
#X connect 260 0 28 0;
#X connect 261 0 258 1;
#X restore 61 158 pd piano;
