#N canvas 563 0 985 769 10;
#X obj 133 57 key;
#X obj 236 276 mtof;
#X obj 236 318 osc~;
#X obj 287 444 *~ 0.1;
#X obj 287 484 dac~;
#X msg 44 168 60;
#X msg 99 168 62;
#X msg 150 168 64;
#X msg 201 167 65;
#X obj 132 101 select 97 115 100 102 103 104 106 107;
#X msg 252 168 67;
#X msg 304 168 69;
#X msg 356 168 71;
#X msg 406 168 72;
#X obj 288 407 *~;
#X obj 304 319 vline~;
#X text 359 304 mi mi mi olsun diye, f 10;
#X text 157 350 sesi güzelleşsin diye, f 11;
#X msg 305 276 1 5 \, 0.4 120 5 \, 0 700 120;
#X obj 236 358 lop~ 1200;
#X obj 628 72 bng 26 250 50 0 empty empty empty 17 7 0 10 #fcfcfc #000000
#000000;
#X msg 628 130 1 5 \, 0 200 5;
#X obj 629 176 vline~;
#X obj 554 176 osc~ 60;
#X obj 595 218 *~;
#X obj 596 260 *~ 0.3;
#X obj 593 304 dac~;
#X connect 0 0 9 0;
#X connect 1 0 2 0;
#X connect 2 0 19 0;
#X connect 3 0 4 0;
#X connect 5 0 1 0;
#X connect 5 0 18 0;
#X connect 6 0 1 0;
#X connect 6 0 18 0;
#X connect 7 0 1 0;
#X connect 7 0 18 0;
#X connect 8 0 1 0;
#X connect 8 0 18 0;
#X connect 9 0 5 0;
#X connect 9 1 6 0;
#X connect 9 2 7 0;
#X connect 9 3 8 0;
#X connect 9 4 10 0;
#X connect 9 5 11 0;
#X connect 9 6 12 0;
#X connect 9 7 13 0;
#X connect 10 0 1 0;
#X connect 10 0 18 0;
#X connect 11 0 1 0;
#X connect 11 0 18 0;
#X connect 12 0 1 0;
#X connect 12 0 18 0;
#X connect 13 0 1 0;
#X connect 13 0 18 0;
#X connect 14 0 3 0;
#X connect 15 0 14 1;
#X connect 18 0 15 0;
#X connect 19 0 14 0;
#X connect 20 0 21 0;
#X connect 21 0 22 0;
#X connect 22 0 24 1;
#X connect 23 0 24 0;
#X connect 24 0 25 0;
#X connect 25 0 26 0;
#X connect 25 0 26 1;
