#N canvas -111 49 1169 997 10;
#X obj 110 610 mtof;
#X obj 110 635 phasor~;
#X msg 170 690 1 5;
#X msg 220 690 0 50;
#X obj 170 720 vline~;
#X obj 110 720 *~;
#X obj 550 910 dac~;
#X obj 293 612 mtof;
#X obj 293 637 phasor~;
#X msg 353 692 1 5;
#X msg 400 690 0 50;
#X obj 353 722 vline~;
#X obj 293 722 *~;
#X obj 462 613 mtof;
#X obj 462 638 phasor~;
#X msg 522 693 1 5;
#X msg 572 693 0 50;
#X obj 522 723 vline~;
#X obj 462 723 *~;
#X obj 632 622 mtof;
#X obj 632 647 phasor~;
#X msg 692 702 1 5;
#X msg 740 700 0 50;
#X obj 692 732 vline~;
#X obj 632 732 *~;
#X obj -59 612 mtof;
#X obj -59 637 phasor~;
#X msg 1 692 1 5;
#X msg 51 692 0 50;
#X obj 1 722 vline~;
#X obj -59 722 *~;
#X obj 80 850 +~;
#X obj -30 780 *~ 0.1;
#X obj 120 770 *~ 0.1;
#X obj 300 780 *~ 0.1;
#X obj 440 770 *~ 0.1;
#X obj 630 770 *~ 0.1;
#X obj 190 860 +~;
#X obj 370 860 +~;
#X obj 560 860 +~;
#X obj 0 640 select 0;
#X obj 180 640 select 0;
#X obj 350 650 select 0;
#X obj 520 650 select 0;
#X obj 700 650 select 0;
#X obj 310 30 keyname;
#X obj 240 460 pack f f f;
#X obj -10 570 unpack f f;
#X obj 140 570 unpack f f;
#X obj 330 570 unpack f f;
#X obj 520 570 unpack f f;
#X obj 700 570 unpack f f;
#X msg 70 200 60;
#X msg 110 200 61;
#X msg 150 200 62;
#X msg 190 200 63;
#X msg 230 200 64;
#X msg 270 200 65;
#X msg 310 200 66;
#X msg 350 200 67;
#X msg 390 200 68;
#X msg 430 200 69;
#X msg 470 200 70;
#X msg 510 200 71;
#X msg 550 200 72;
#X msg 590 200 73;
#X msg 630 200 74;
#X msg 670 200 75;
#X obj 460 60 sel 1 0;
#X obj 300 500 route 1 2 3 4 5;
#X obj 390 420 print;
#X msg 460 90 1;
#X msg 500 90 0;
#X obj 190 300 t f f;
#X obj 320 370 f;
#X obj 490 350 t b f;
#X obj 240 430 poly 5 0;
#X obj 70 110 sel a w s e d f t g y h u j k o l p;
#X connect 0 0 1 0;
#X connect 1 0 5 0;
#X connect 2 0 4 0;
#X connect 3 0 4 0;
#X connect 4 0 5 1;
#X connect 5 0 33 0;
#X connect 7 0 8 0;
#X connect 8 0 12 0;
#X connect 9 0 11 0;
#X connect 10 0 11 0;
#X connect 11 0 12 1;
#X connect 12 0 34 0;
#X connect 13 0 14 0;
#X connect 14 0 18 0;
#X connect 15 0 17 0;
#X connect 16 0 17 0;
#X connect 17 0 18 1;
#X connect 18 0 35 0;
#X connect 19 0 20 0;
#X connect 20 0 24 0;
#X connect 21 0 23 0;
#X connect 22 0 23 0;
#X connect 23 0 24 1;
#X connect 24 0 36 0;
#X connect 25 0 26 0;
#X connect 26 0 30 0;
#X connect 27 0 29 0;
#X connect 28 0 29 0;
#X connect 29 0 30 1;
#X connect 30 0 32 0;
#X connect 31 0 37 0;
#X connect 32 0 31 0;
#X connect 33 0 31 1;
#X connect 34 0 37 1;
#X connect 35 0 38 1;
#X connect 36 0 39 1;
#X connect 37 0 38 0;
#X connect 38 0 39 0;
#X connect 39 0 6 0;
#X connect 40 0 28 0;
#X connect 40 1 27 0;
#X connect 41 0 3 0;
#X connect 41 1 2 0;
#X connect 42 0 10 0;
#X connect 42 1 9 0;
#X connect 43 0 16 0;
#X connect 43 1 15 0;
#X connect 44 0 22 0;
#X connect 44 1 21 0;
#X connect 45 0 68 0;
#X connect 45 1 77 0;
#X connect 46 0 69 0;
#X connect 46 0 70 0;
#X connect 47 0 25 0;
#X connect 47 1 40 0;
#X connect 48 0 0 0;
#X connect 48 1 41 0;
#X connect 49 0 7 0;
#X connect 49 1 42 0;
#X connect 50 0 13 0;
#X connect 50 1 43 0;
#X connect 51 0 19 0;
#X connect 51 1 44 0;
#X connect 52 0 73 0;
#X connect 53 0 73 0;
#X connect 54 0 73 0;
#X connect 55 0 73 0;
#X connect 56 0 73 0;
#X connect 57 0 73 0;
#X connect 58 0 73 0;
#X connect 59 0 73 0;
#X connect 60 0 73 0;
#X connect 61 0 73 0;
#X connect 62 0 73 0;
#X connect 63 0 73 0;
#X connect 64 0 73 0;
#X connect 65 0 73 0;
#X connect 66 0 73 0;
#X connect 67 0 73 0;
#X connect 68 0 71 0;
#X connect 68 1 72 0;
#X connect 69 0 47 0;
#X connect 69 1 48 0;
#X connect 69 2 49 0;
#X connect 69 3 50 0;
#X connect 69 4 51 0;
#X connect 71 0 75 0;
#X connect 72 0 75 0;
#X connect 73 1 74 1;
#X connect 74 0 76 0;
#X connect 75 0 74 0;
#X connect 75 1 76 1;
#X connect 76 0 46 0;
#X connect 76 1 46 1;
#X connect 76 2 46 2;
#X connect 77 0 52 0;
#X connect 77 1 53 0;
#X connect 77 2 54 0;
#X connect 77 3 55 0;
#X connect 77 4 56 0;
#X connect 77 5 57 0;
#X connect 77 6 58 0;
#X connect 77 7 59 0;
#X connect 77 8 60 0;
#X connect 77 9 61 0;
#X connect 77 10 62 0;
#X connect 77 11 63 0;
#X connect 77 12 64 0;
#X connect 77 13 65 0;
#X connect 77 14 66 0;
#X connect 77 15 67 0;
